<svg width="24" height="24" viewBox="0 0 24 24" fill="none" xmlns="http://www.w3.org/2000/svg">
<g clip-path="url(#clip0_1313_667)">
<path d="M17.167 16.162C16.6982 15.6933 16.0624 15.43 15.3995 15.43C14.7366 15.43 14.1008 15.6933 13.632 16.162L13.247 16.547C11.152 14.7897 9.21497 12.8523 7.45802 10.757L7.84402 10.373C8.31153 9.90336 8.57401 9.26767 8.57401 8.605C8.57401 7.94233 8.31153 7.30663 7.84402 6.837L5.72102 4.715C5.2522 4.24632 4.61643 3.98303 3.95352 3.98303C3.29061 3.98303 2.65484 4.24632 2.18602 4.715L1.02202 5.88C0.454714 6.45138 0.101168 7.20047 0.0206901 8.00161C-0.0597881 8.80275 0.137698 9.6072 0.580017 10.28C4.04006 15.4941 8.50844 19.9632 13.722 23.424C14.3968 23.8604 15.1999 24.0543 15.9995 23.974C16.799 23.8937 17.5475 23.5439 18.122 22.982L19.287 21.818C19.7557 21.3492 20.019 20.7134 20.019 20.0505C20.019 19.3876 19.7557 18.7518 19.287 18.283L17.167 16.162Z" fill="black"/>
<path d="M11.5 0.00695801C11.2348 0.00695801 10.9804 0.112315 10.7929 0.299851C10.6054 0.487388 10.5 0.741741 10.5 1.00696C10.5 1.27217 10.6054 1.52653 10.7929 1.71406C10.9804 1.9016 11.2348 2.00696 11.5 2.00696C14.2838 2.01013 16.9527 3.1174 18.9211 5.08584C20.8896 7.05429 21.9968 9.72316 22 12.507C22 12.7722 22.1054 13.0265 22.2929 13.2141C22.4804 13.4016 22.7348 13.507 23 13.507C23.2652 13.507 23.5196 13.4016 23.7071 13.2141C23.8946 13.0265 24 12.7722 24 12.507C23.996 9.19297 22.6778 6.01585 20.3344 3.67251C17.9911 1.32916 14.814 0.0109277 11.5 0.00695801Z" fill="black"/>
<path d="M11.5 6.00696C13.2233 6.00907 14.8753 6.69457 16.0939 7.9131C17.3124 9.13163 17.9979 10.7837 18 12.507C18 12.7722 18.1054 13.0265 18.2929 13.2141C18.4804 13.4016 18.7348 13.507 19 13.507C19.2652 13.507 19.5196 13.4016 19.7071 13.2141C19.8946 13.0265 20 12.7722 20 12.507C19.9974 10.2534 19.101 8.09296 17.5075 6.49947C15.914 4.90599 13.7535 4.0096 11.5 4.00696C11.2348 4.00696 10.9804 4.11232 10.7929 4.29985C10.6054 4.48739 10.5 4.74174 10.5 5.00696C10.5 5.27217 10.6054 5.52653 10.7929 5.71406C10.9804 5.9016 11.2348 6.00696 11.5 6.00696Z" fill="black"/>
<path d="M11.5 10.007C12.163 10.007 12.7989 10.2703 13.2678 10.7392C13.7366 11.208 14 11.8439 14 12.507C14 12.7722 14.1054 13.0265 14.2929 13.2141C14.4804 13.4016 14.7348 13.507 15 13.507C15.2652 13.507 15.5196 13.4016 15.7071 13.2141C15.8946 13.0265 16 12.7722 16 12.507C15.9987 11.3139 15.5241 10.1701 14.6805 9.32644C13.8369 8.48281 12.6931 8.00828 11.5 8.00696C11.2348 8.00696 10.9804 8.11232 10.7929 8.29985C10.6054 8.48739 10.5 8.74174 10.5 9.00696C10.5 9.27217 10.6054 9.52653 10.7929 9.71406C10.9804 9.9016 11.2348 10.007 11.5 10.007Z" fill="black"/>
</g>
<defs>
<clipPath id="clip0_1313_667">
<rect width="24" height="24" fill="white"/>
</clipPath>
</defs>
</svg>
